# xmcd
#
# Track frame offsets: 
#        150
#        9525
#        21375
#        31500
#        44550
#        52650
#        64650
#        80325
#        88650
#        96750
#
# Disc length: 1510 seconds
#
# Revision: 0
# Processed by: cddbd v1.5.2PL0 Copyright (c) Steve Scherf et al.
# Submitted via: ExactAudioCopyFreeDBPlugin 1.0
#
DISCID=6d05e40a
DTITLE=Johnny Fallstaff - Metro-Billy
DYEAR=1900
DGENRE=Country
TTITLE0=Lonely House Upon The Hill
TTITLE1=Nobody But Me
TTITLE2=Metro-Billy
TTITLE3=Leave Your Teardrops At The Tone
TTITLE4=Falstaff Infection
TTITLE5=Come To Daddy
TTITLE6=Your Love All Over Me
TTITLE7=Peekaboo
TTITLE8=Beer Joint Jubilee
TTITLE9=Handle With Care
EXTD=
EXTT0=
EXTT1=
EXTT2=
EXTT3=
EXTT4=
EXTT5=
EXTT6=
EXTT7=
EXTT8=
EXTT9=
PLAYORDER=
